<mxfile host="app.diagrams.net" modified="2024-02-09T04:09:14.134Z" agent="Mozilla/5.0 (Windows NT 10.0; Win64; x64) AppleWebKit/537.36 (KHTML, like Gecko) Chrome/121.0.0.0 Safari/537.36 Edg/121.0.0.0" etag="U-ICnnUkYBtRrxqzznO2" version="23.1.2" type="github">
  <diagram name="Page-1" id="gC85eCTiDHSMG2Bi53WE">
    <mxGraphModel dx="1426" dy="785" grid="1" gridSize="10" guides="1" tooltips="1" connect="1" arrows="1" fold="1" page="1" pageScale="1" pageWidth="850" pageHeight="1100" math="0" shadow="0">
      <root>
        <mxCell id="0" />
        <mxCell id="1" parent="0" />
        <mxCell id="VooZEj63IhAPyALCdkei-3" value="&amp;lt;&amp;lt;interface&amp;gt;&amp;gt;&lt;br&gt;nameable" style="swimlane;fontStyle=0;childLayout=stackLayout;horizontal=1;startSize=30;horizontalStack=0;resizeParent=1;resizeParentMax=0;resizeLast=0;collapsible=1;marginBottom=0;whiteSpace=wrap;html=1;" vertex="1" parent="1">
          <mxGeometry x="310" y="90" width="230" height="90" as="geometry" />
        </mxCell>
        <mxCell id="VooZEj63IhAPyALCdkei-4" value="+setName(n : String) : void" style="text;strokeColor=none;fillColor=none;align=left;verticalAlign=middle;spacingLeft=4;spacingRight=4;overflow=hidden;points=[[0,0.5],[1,0.5]];portConstraint=eastwest;rotatable=0;whiteSpace=wrap;html=1;" vertex="1" parent="VooZEj63IhAPyALCdkei-3">
          <mxGeometry y="30" width="230" height="30" as="geometry" />
        </mxCell>
        <mxCell id="VooZEj63IhAPyALCdkei-5" value="+getName() : String" style="text;strokeColor=none;fillColor=none;align=left;verticalAlign=middle;spacingLeft=4;spacingRight=4;overflow=hidden;points=[[0,0.5],[1,0.5]];portConstraint=eastwest;rotatable=0;whiteSpace=wrap;html=1;" vertex="1" parent="VooZEj63IhAPyALCdkei-3">
          <mxGeometry y="60" width="230" height="30" as="geometry" />
        </mxCell>
        <mxCell id="VooZEj63IhAPyALCdkei-8" value="Person" style="swimlane;fontStyle=0;childLayout=stackLayout;horizontal=1;startSize=30;horizontalStack=0;resizeParent=1;resizeParentMax=0;resizeLast=0;collapsible=1;marginBottom=0;whiteSpace=wrap;html=1;" vertex="1" parent="1">
          <mxGeometry x="50" y="350" width="210" height="180" as="geometry">
            <mxRectangle x="50" y="350" width="80" height="30" as="alternateBounds" />
          </mxGeometry>
        </mxCell>
        <mxCell id="VooZEj63IhAPyALCdkei-9" value="&lt;br&gt;- name : String;&lt;br&gt;- age : int;&lt;br&gt;&lt;br&gt;+Person(name : String , age : int)&amp;nbsp;" style="text;strokeColor=none;fillColor=none;align=left;verticalAlign=middle;spacingLeft=4;spacingRight=4;overflow=hidden;points=[[0,0.5],[1,0.5]];portConstraint=eastwest;rotatable=0;whiteSpace=wrap;html=1;" vertex="1" parent="VooZEj63IhAPyALCdkei-8">
          <mxGeometry y="30" width="210" height="80" as="geometry" />
        </mxCell>
        <mxCell id="VooZEj63IhAPyALCdkei-20" value="" style="endArrow=none;html=1;rounded=0;" edge="1" parent="VooZEj63IhAPyALCdkei-8" target="VooZEj63IhAPyALCdkei-9">
          <mxGeometry width="50" height="50" relative="1" as="geometry">
            <mxPoint y="90" as="sourcePoint" />
            <mxPoint x="50" y="40" as="targetPoint" />
          </mxGeometry>
        </mxCell>
        <mxCell id="VooZEj63IhAPyALCdkei-10" value="+getName() : String" style="text;strokeColor=none;fillColor=none;align=left;verticalAlign=middle;spacingLeft=4;spacingRight=4;overflow=hidden;points=[[0,0.5],[1,0.5]];portConstraint=eastwest;rotatable=0;whiteSpace=wrap;html=1;" vertex="1" parent="VooZEj63IhAPyALCdkei-8">
          <mxGeometry y="110" width="210" height="40" as="geometry" />
        </mxCell>
        <mxCell id="VooZEj63IhAPyALCdkei-11" value="+getAge() : int" style="text;strokeColor=none;fillColor=none;align=left;verticalAlign=middle;spacingLeft=4;spacingRight=4;overflow=hidden;points=[[0,0.5],[1,0.5]];portConstraint=eastwest;rotatable=0;whiteSpace=wrap;html=1;" vertex="1" parent="VooZEj63IhAPyALCdkei-8">
          <mxGeometry y="150" width="210" height="30" as="geometry" />
        </mxCell>
        <mxCell id="VooZEj63IhAPyALCdkei-21" value="" style="endArrow=none;html=1;rounded=0;entryX=0;entryY=0.725;entryDx=0;entryDy=0;entryPerimeter=0;" edge="1" parent="VooZEj63IhAPyALCdkei-8" target="VooZEj63IhAPyALCdkei-9">
          <mxGeometry width="50" height="50" relative="1" as="geometry">
            <mxPoint x="210" y="90" as="sourcePoint" />
            <mxPoint x="400" y="30" as="targetPoint" />
          </mxGeometry>
        </mxCell>
        <mxCell id="VooZEj63IhAPyALCdkei-22" style="edgeStyle=orthogonalEdgeStyle;rounded=0;orthogonalLoop=1;jettySize=auto;html=1;exitX=0.5;exitY=0;exitDx=0;exitDy=0;entryX=0;entryY=-0.1;entryDx=0;entryDy=0;entryPerimeter=0;dashed=1;dashPattern=8 8;endArrow=block;endFill=0;" edge="1" parent="1" source="VooZEj63IhAPyALCdkei-8" target="VooZEj63IhAPyALCdkei-5">
          <mxGeometry relative="1" as="geometry" />
        </mxCell>
        <mxCell id="VooZEj63IhAPyALCdkei-24" value="Animal" style="swimlane;fontStyle=0;childLayout=stackLayout;horizontal=1;startSize=30;horizontalStack=0;resizeParent=1;resizeParentMax=0;resizeLast=0;collapsible=1;marginBottom=0;whiteSpace=wrap;html=1;" vertex="1" parent="1">
          <mxGeometry x="314" y="350" width="221.67" height="180" as="geometry">
            <mxRectangle x="50" y="350" width="80" height="30" as="alternateBounds" />
          </mxGeometry>
        </mxCell>
        <mxCell id="VooZEj63IhAPyALCdkei-25" value="&lt;br&gt;- name : String;&lt;br&gt;- type : String;&lt;br&gt;&lt;br&gt;+Person(name : String , type : String)&amp;nbsp;" style="text;strokeColor=none;fillColor=none;align=left;verticalAlign=middle;spacingLeft=4;spacingRight=4;overflow=hidden;points=[[0,0.5],[1,0.5]];portConstraint=eastwest;rotatable=0;whiteSpace=wrap;html=1;" vertex="1" parent="VooZEj63IhAPyALCdkei-24">
          <mxGeometry y="30" width="221.67" height="80" as="geometry" />
        </mxCell>
        <mxCell id="VooZEj63IhAPyALCdkei-26" value="" style="endArrow=none;html=1;rounded=0;" edge="1" parent="VooZEj63IhAPyALCdkei-24" target="VooZEj63IhAPyALCdkei-25">
          <mxGeometry width="50" height="50" relative="1" as="geometry">
            <mxPoint y="90" as="sourcePoint" />
            <mxPoint x="50" y="40" as="targetPoint" />
          </mxGeometry>
        </mxCell>
        <mxCell id="VooZEj63IhAPyALCdkei-27" value="+getName() : String" style="text;strokeColor=none;fillColor=none;align=left;verticalAlign=middle;spacingLeft=4;spacingRight=4;overflow=hidden;points=[[0,0.5],[1,0.5]];portConstraint=eastwest;rotatable=0;whiteSpace=wrap;html=1;" vertex="1" parent="VooZEj63IhAPyALCdkei-24">
          <mxGeometry y="110" width="221.67" height="40" as="geometry" />
        </mxCell>
        <mxCell id="VooZEj63IhAPyALCdkei-28" value="+getType() : String" style="text;strokeColor=none;fillColor=none;align=left;verticalAlign=middle;spacingLeft=4;spacingRight=4;overflow=hidden;points=[[0,0.5],[1,0.5]];portConstraint=eastwest;rotatable=0;whiteSpace=wrap;html=1;" vertex="1" parent="VooZEj63IhAPyALCdkei-24">
          <mxGeometry y="150" width="221.67" height="30" as="geometry" />
        </mxCell>
        <mxCell id="VooZEj63IhAPyALCdkei-29" value="" style="endArrow=none;html=1;rounded=0;entryX=0;entryY=0.725;entryDx=0;entryDy=0;entryPerimeter=0;exitX=1.001;exitY=0.738;exitDx=0;exitDy=0;exitPerimeter=0;" edge="1" parent="VooZEj63IhAPyALCdkei-24" target="VooZEj63IhAPyALCdkei-25" source="VooZEj63IhAPyALCdkei-25">
          <mxGeometry width="50" height="50" relative="1" as="geometry">
            <mxPoint x="210" y="90" as="sourcePoint" />
            <mxPoint x="400" y="30" as="targetPoint" />
          </mxGeometry>
        </mxCell>
        <mxCell id="VooZEj63IhAPyALCdkei-30" value="Things" style="swimlane;fontStyle=0;childLayout=stackLayout;horizontal=1;startSize=30;horizontalStack=0;resizeParent=1;resizeParentMax=0;resizeLast=0;collapsible=1;marginBottom=0;whiteSpace=wrap;html=1;" vertex="1" parent="1">
          <mxGeometry x="560" y="350" width="276.99" height="180" as="geometry">
            <mxRectangle x="50" y="350" width="80" height="30" as="alternateBounds" />
          </mxGeometry>
        </mxCell>
        <mxCell id="VooZEj63IhAPyALCdkei-31" value="&lt;br&gt;- name : String;&lt;br&gt;- HowToUse : String;&lt;br&gt;&lt;br&gt;+Things(name : String , HowToUse : String)&amp;nbsp;" style="text;strokeColor=none;fillColor=none;align=left;verticalAlign=middle;spacingLeft=4;spacingRight=4;overflow=hidden;points=[[0,0.5],[1,0.5]];portConstraint=eastwest;rotatable=0;whiteSpace=wrap;html=1;" vertex="1" parent="VooZEj63IhAPyALCdkei-30">
          <mxGeometry y="30" width="276.99" height="80" as="geometry" />
        </mxCell>
        <mxCell id="VooZEj63IhAPyALCdkei-32" value="" style="endArrow=none;html=1;rounded=0;" edge="1" parent="VooZEj63IhAPyALCdkei-30" target="VooZEj63IhAPyALCdkei-31">
          <mxGeometry width="50" height="50" relative="1" as="geometry">
            <mxPoint y="90" as="sourcePoint" />
            <mxPoint x="50" y="40" as="targetPoint" />
          </mxGeometry>
        </mxCell>
        <mxCell id="VooZEj63IhAPyALCdkei-33" value="+getName() : String" style="text;strokeColor=none;fillColor=none;align=left;verticalAlign=middle;spacingLeft=4;spacingRight=4;overflow=hidden;points=[[0,0.5],[1,0.5]];portConstraint=eastwest;rotatable=0;whiteSpace=wrap;html=1;" vertex="1" parent="VooZEj63IhAPyALCdkei-30">
          <mxGeometry y="110" width="276.99" height="40" as="geometry" />
        </mxCell>
        <mxCell id="VooZEj63IhAPyALCdkei-34" value="+getHowToUse() : String" style="text;strokeColor=none;fillColor=none;align=left;verticalAlign=middle;spacingLeft=4;spacingRight=4;overflow=hidden;points=[[0,0.5],[1,0.5]];portConstraint=eastwest;rotatable=0;whiteSpace=wrap;html=1;" vertex="1" parent="VooZEj63IhAPyALCdkei-30">
          <mxGeometry y="150" width="276.99" height="30" as="geometry" />
        </mxCell>
        <mxCell id="VooZEj63IhAPyALCdkei-35" value="" style="endArrow=none;html=1;rounded=0;entryX=0;entryY=0.725;entryDx=0;entryDy=0;entryPerimeter=0;exitX=1.004;exitY=0.713;exitDx=0;exitDy=0;exitPerimeter=0;" edge="1" parent="VooZEj63IhAPyALCdkei-30" target="VooZEj63IhAPyALCdkei-31" source="VooZEj63IhAPyALCdkei-31">
          <mxGeometry width="50" height="50" relative="1" as="geometry">
            <mxPoint x="210" y="90" as="sourcePoint" />
            <mxPoint x="400" y="30" as="targetPoint" />
          </mxGeometry>
        </mxCell>
        <mxCell id="VooZEj63IhAPyALCdkei-36" style="edgeStyle=orthogonalEdgeStyle;rounded=0;orthogonalLoop=1;jettySize=auto;html=1;exitX=0.5;exitY=0;exitDx=0;exitDy=0;entryX=0.496;entryY=1;entryDx=0;entryDy=0;entryPerimeter=0;dashed=1;dashPattern=8 8;endArrow=block;endFill=0;" edge="1" parent="1" source="VooZEj63IhAPyALCdkei-24" target="VooZEj63IhAPyALCdkei-5">
          <mxGeometry relative="1" as="geometry" />
        </mxCell>
        <mxCell id="VooZEj63IhAPyALCdkei-37" style="edgeStyle=orthogonalEdgeStyle;rounded=0;orthogonalLoop=1;jettySize=auto;html=1;exitX=0.5;exitY=0;exitDx=0;exitDy=0;entryX=1.013;entryY=-0.1;entryDx=0;entryDy=0;entryPerimeter=0;dashed=1;dashPattern=8 8;endArrow=block;endFill=0;" edge="1" parent="1" source="VooZEj63IhAPyALCdkei-30" target="VooZEj63IhAPyALCdkei-5">
          <mxGeometry relative="1" as="geometry" />
        </mxCell>
      </root>
    </mxGraphModel>
  </diagram>
</mxfile>
